<?xml version="1.0" encoding="utf-8"?>
<!-- Generator: Adobe Illustrator 15.1.0, SVG Export Plug-In . SVG Version: 6.00 Build 0)  -->
<!DOCTYPE svg PUBLIC "-//W3C//DTD SVG 1.1//EN" "http://www.w3.org/Graphics/SVG/1.1/DTD/svg11.dtd">
<svg version="1.1" id="logo-complete" xmlns="http://www.w3.org/2000/svg" xmlns:xlink="http://www.w3.org/1999/xlink" x="0px"
	 y="0px" width="240px" height="70px" viewBox="0 0 240 70" enable-background="new 0 0 240 70" xml:space="preserve">
<path id="logo-bottom" fill="#1F486B" d="M57.221,32.031c-0.251,0-0.502-0.005-0.753-0.016c-5.934-0.226-11.513-3.098-16.135-8.307
	c-7.291-8.216-14.71-12.353-21.987-12.207c-8.941,0.141-15.295,6.625-17.612,9.406c-0.104,0.125-0.173,0.204-0.202,0.231L0,21.796
	V62.12c0.005,4.352,3.535,7.879,7.889,7.879H62.11c4.357,0,7.89-3.532,7.89-7.889V27.473C66.561,30.358,61.92,32.031,57.221,32.031z
	"/>
<path id="logo-top" fill="#6E95B8" d="M18.322,9.127c7.752-0.137,15.539,4.155,23.133,12.711c4.344,4.896,9.555,7.595,15.07,7.804
	c5.851,0.22,10.747-2.398,13.36-4.93c0.034-0.033,0.077-0.049,0.115-0.072V7.88c-0.006-4.352-3.536-7.879-7.89-7.879H7.89
	C3.532,0.001,0,3.533,0,7.89v10.693C2.737,15.438,9.252,9.269,18.322,9.127z"/>
<g id="logo-text">
	<path fill="#FFFFFF" d="M48.045,51.049c0-2.305-2.303-2.729-4.215-2.729c-2.156,0-4.365,0.739-4.514,3.213h2.638
		c0.092-1.041,0.741-1.449,1.745-1.449c0.929,0,1.708,0.165,1.708,1.301c0,1.077-1.505,1.021-3.12,1.263
		c-1.634,0.225-3.27,0.743-3.27,2.916c0,1.97,1.448,2.877,3.27,2.877c1.169,0,2.395-0.312,3.23-1.188
		c0.018,0.312,0.093,0.631,0.186,0.927h2.674c-0.241-0.388-0.334-1.261-0.334-2.133V51.05L48.045,51.049L48.045,51.049z
		 M45.408,54.465c0,0.574-0.074,2.21-2.136,2.21c-0.855,0-1.616-0.242-1.616-1.225c0-0.967,0.744-1.245,1.56-1.414
		c0.818-0.147,1.747-0.166,2.192-0.557V54.465L45.408,54.465z"/>
	<path fill="#FFFFFF" d="M55.789,48.317c-1.188,0-2.377,0.443-3.027,1.43h-0.037v-4.83h-2.637v13.261h2.507v-1.225h0.039
		c0.574,1.059,1.745,1.483,3.156,1.483c1.914,0,3.975-1.541,3.975-5.068C59.764,49.858,57.703,48.317,55.789,48.317z M54.879,56.45
		c-1.561,0-2.247-1.467-2.247-3.062c0-1.617,0.687-3.085,2.247-3.085c1.56,0,2.247,1.468,2.247,3.085
		C57.126,54.983,56.439,56.45,54.879,56.45z"/>
	<polygon fill="#FFFFFF" points="31.609,44.917 28.693,44.917 28.693,58.178 38.072,58.178 38.072,55.729 31.609,55.729 	"/>
	<polygon fill="#FFFFFF" points="10.122,58.178 13.038,58.178 13.038,52.699 18.59,52.699 18.59,50.435 13.038,50.435 
		13.038,47.369 19.446,47.369 19.446,44.917 10.122,44.917 	"/>
	<rect x="20.837" y="51.978" fill="#FFFFFF" width="5.59" height="2.265"/>
</g>
<g id="logo-payoff">
	<polygon fill="#1F486B" points="92.986,54.19 92.952,54.19 90.755,45.333 88.109,45.333 85.878,54.082 85.843,54.082 
		83.809,45.333 80.982,45.333 84.384,58.185 87.246,58.185 89.388,49.438 89.424,49.438 91.602,58.185 94.409,58.185 97.865,45.333 
		95.093,45.333 	"/>
	<path fill="#1F486B" d="M104.217,48.629c-0.953,0-2.068,0.504-2.718,1.548h-0.054v-4.844h-2.555v12.85h2.555v-4.876
		c0-1.89,0.595-2.663,1.979-2.663c1.188,0,1.638,0.757,1.638,2.286v5.253h2.557v-5.72C107.619,50.159,106.936,48.629,104.217,48.629
		z"/>
	<path fill="#1F486B" d="M113.865,48.629c-2.828,0-4.752,2.123-4.752,4.913c0,2.879,1.816,4.895,4.752,4.895
		c2.104,0,3.633-0.937,4.354-3.132h-2.248c-0.162,0.576-0.99,1.207-2.017,1.207c-1.423,0-2.213-0.738-2.286-2.355h6.713
		C118.562,51.292,117.029,48.629,113.865,48.629z M111.668,52.534c0.037-0.721,0.505-1.98,2.125-1.98
		c1.241,0,1.799,0.686,2.033,1.98H111.668z"/>
	<path fill="#1F486B" d="M122.357,50.608h-0.034v-1.729h-2.431v9.306h2.557v-4.192c0-1.64,0.648-2.987,2.52-2.987
		c0.308,0,0.686,0.033,0.917,0.089v-2.375c-0.161-0.056-0.378-0.09-0.558-0.09C124.086,48.629,122.826,49.438,122.357,50.608z"/>
	<path fill="#1F486B" d="M130.871,48.629c-2.824,0-4.75,2.123-4.75,4.913c0,2.879,1.818,4.895,4.75,4.895
		c2.105,0,3.637-0.937,4.355-3.132h-2.25c-0.162,0.576-0.988,1.207-2.015,1.207c-1.423,0-2.215-0.738-2.287-2.355h6.716
		C135.568,51.292,134.039,48.629,130.871,48.629z M128.676,52.534c0.036-0.721,0.504-1.98,2.123-1.98
		c1.242,0,1.801,0.686,2.033,1.98H128.676z"/>
	<rect x="141.977" y="45.333" fill="#1F486B" width="2.556" height="2.105"/>
	<rect x="141.977" y="48.88" fill="#1F486B" width="2.556" height="9.305"/>
	<path fill="#1F486B" d="M153.062,50.014h-0.034c-0.578-0.919-1.658-1.385-2.757-1.385c-2.733,0-4.119,2.323-4.119,4.822
		c0,2.573,1.367,4.987,4.177,4.987c1.187,0,2.229-0.433,2.824-1.441h0.034v1.188h2.431V45.333h-2.556V50.014z M150.958,56.512
		c-1.584,0-2.251-1.53-2.251-2.987c0-1.53,0.576-2.971,2.251-2.971c1.656,0,2.194,1.439,2.194,2.952
		C153.152,55.035,152.648,56.512,150.958,56.512z"/>
	<path fill="#1F486B" d="M161.846,48.629c-2.826,0-4.752,2.123-4.752,4.913c0,2.879,1.818,4.895,4.752,4.895
		c2.105,0,3.635-0.937,4.355-3.132h-2.25c-0.16,0.576-0.992,1.207-2.018,1.207c-1.423,0-2.213-0.738-2.285-2.355h6.713
		C166.541,51.292,165.012,48.629,161.846,48.629z M159.648,52.534c0.037-0.721,0.507-1.98,2.125-1.98
		c1.242,0,1.797,0.686,2.033,1.98H159.648z"/>
	<path fill="#1F486B" d="M176.225,51.274c0-2.231-2.229-2.646-4.086-2.646c-2.086,0-4.229,0.72-4.373,3.113h2.558
		c0.09-1.008,0.721-1.405,1.692-1.405c0.896,0,1.654,0.163,1.654,1.261c0,1.043-1.457,0.988-3.025,1.226
		c-1.584,0.217-3.168,0.72-3.168,2.823c0,1.907,1.406,2.79,3.168,2.79c1.136,0,2.322-0.307,3.131-1.149
		c0.021,0.305,0.091,0.609,0.183,0.896h2.594c-0.235-0.377-0.325-1.223-0.325-2.067v-4.84H176.225z M173.67,54.584
		c0,0.559-0.072,2.146-2.072,2.146c-0.826,0-1.563-0.234-1.563-1.188c0-0.937,0.721-1.206,1.51-1.368
		c0.793-0.144,1.692-0.163,2.127-0.541L173.67,54.584L173.67,54.584z"/>
	<path fill="#1F486B" d="M183.422,52.587c-1.457-0.341-2.896-0.465-2.896-1.385c0-0.754,0.847-0.863,1.423-0.863
		c0.92,0,1.674,0.271,1.743,1.261h2.431c-0.197-2.286-2.068-2.97-4.104-2.97c-1.998,0-4.049,0.609-4.049,2.987
		c0,1.638,1.478,2.159,2.953,2.483c1.834,0.396,2.898,0.666,2.898,1.438c0,0.899-0.938,1.188-1.674,1.188
		c-1.011,0-1.945-0.452-1.963-1.568h-2.431c0.109,2.468,2.217,3.277,4.371,3.277c2.127,0,4.25-0.793,4.25-3.239
		C186.375,53.471,184.916,52.931,183.422,52.587z"/>
	<rect x="199.297" y="45.333" fill="#1F486B" width="2.555" height="12.85"/>
	<path fill="#1F486B" d="M193.428,48.16v0.72h-1.529v1.71h1.529v7.595h2.555V50.59h1.769v-1.71h-1.769v-0.556
		c0-0.774,0.289-1.064,0.976-1.064c0.322,0,0.627,0.021,0.937,0.057v-1.908c-0.433-0.019-0.9-0.072-1.351-0.072
		C194.455,45.333,193.428,46.522,193.428,48.16z"/>
	<path fill="#1F486B" d="M208.383,48.629c-2.914,0-4.803,1.943-4.803,4.913c0,2.952,1.889,4.895,4.803,4.895
		c2.936,0,4.824-1.942,4.824-4.895C213.209,50.572,211.318,48.629,208.383,48.629z M208.383,56.512c-1.727,0-2.248-1.496-2.248-2.97
		c0-1.493,0.521-2.988,2.248-2.988c1.748,0,2.271,1.495,2.271,2.988C210.652,55.016,210.131,56.512,208.383,56.512z"/>
	<polygon fill="#1F486B" points="224.098,55.18 224.062,55.18 222.479,48.88 219.994,48.88 218.445,55.198 218.41,55.198 
		216.701,48.88 214,48.88 216.953,58.185 219.598,58.185 221.18,51.938 221.221,51.938 222.873,58.185 225.502,58.185 
		228.434,48.88 225.807,48.88 	"/>
	<path fill="#1F486B" d="M233.832,44.385c1.938,0,3.564,1.529,3.564,3.534c0,2.043-1.626,3.573-3.564,3.573
		c-1.948,0-3.581-1.53-3.581-3.573C230.251,45.914,231.884,44.385,233.832,44.385 M233.832,50.969c1.645,0,2.916-1.312,2.916-3.05
		c0-1.7-1.271-3.011-2.916-3.011c-1.661,0-2.935,1.311-2.935,3.011C230.897,49.657,232.171,50.969,233.832,50.969 M232.446,45.858
		h1.604c0.99,0,1.454,0.39,1.454,1.187c0,0.751-0.474,1.063-1.092,1.13l1.188,1.835h-0.696l-1.128-1.787h-0.685v1.787h-0.646V45.858
		z M233.092,47.699h0.672c0.573,0,1.095-0.028,1.095-0.682c0-0.552-0.476-0.638-0.911-0.638h-0.855V47.699z"/>
</g>
</svg>
